<svg width="25" height="25" viewBox="0 0 25 25" fill="none" xmlns="http://www.w3.org/2000/svg">
<path fill-rule="evenodd" clip-rule="evenodd" d="M17.4492 6.8501C17.0392 6.8501 16.6992 6.5101 16.6992 6.1001V4.8761C15.9252 4.8501 15.0162 4.8501 13.9492 4.8501H11.9492C10.8812 4.8501 9.97322 4.8501 9.19922 4.8761V6.1001C9.19922 6.5101 8.85922 6.8501 8.44922 6.8501C8.03922 6.8501 7.69922 6.5101 7.69922 6.1001V4.9841C6.75422 5.1071 6.10522 5.3441 5.64922 5.8001C5.04722 6.4021 4.82722 7.3401 4.74622 8.8501H21.1522C21.0712 7.3401 20.8502 6.4021 20.2492 5.8001C19.7932 5.3441 19.1442 5.1071 18.1992 4.9841V6.1001C18.1992 6.5101 17.8592 6.8501 17.4492 6.8501ZM21.1932 10.3501C21.1986 10.8788 21.2006 11.4621 21.1992 12.1001V13.1001C21.1992 13.5101 21.5392 13.8501 21.9492 13.8501C22.3592 13.8501 22.6992 13.5101 22.6992 13.1001V12.1001C22.6992 8.1201 22.6992 6.1301 21.3092 4.7401C20.5372 3.9681 19.5792 3.6251 18.1992 3.4721V2.6001C18.1992 2.1901 17.8592 1.8501 17.4492 1.8501C17.0392 1.8501 16.6992 2.1901 16.6992 2.6001V3.3751C15.9032 3.3501 14.9942 3.3501 13.9492 3.3501H11.9492C10.9032 3.3501 9.99522 3.3501 9.19922 3.3751V2.6001C9.19922 2.1901 8.85922 1.8501 8.44922 1.8501C8.03922 1.8501 7.69922 2.1901 7.69922 2.6001V3.4721C6.31922 3.6251 5.36122 3.9681 4.58922 4.7401C3.19922 6.1301 3.19922 8.1301 3.19922 12.1001V14.1001C3.19922 18.0801 3.19922 20.0701 4.58922 21.4601C5.97922 22.8501 7.96922 22.8501 11.9492 22.8501C12.3592 22.8501 12.6992 22.5101 12.6992 22.1001C12.6992 21.6901 12.3592 21.3501 11.9492 21.3501C8.38922 21.3501 6.59922 21.3501 5.64922 20.4001C4.69922 19.4501 4.69922 17.6601 4.69922 14.1001V12.1001C4.69855 11.4628 4.70022 10.8794 4.70422 10.3501H21.1932ZM17.9492 23.3501C15.3292 23.3501 13.1992 21.2201 13.1992 18.6001C13.1992 15.9801 15.3292 13.8501 17.9492 13.8501C20.5692 13.8501 22.6992 15.9801 22.6992 18.6001C22.6992 21.2201 20.5692 23.3501 17.9492 23.3501ZM17.9492 15.3501C16.1592 15.3501 14.6992 16.8101 14.6992 18.6001C14.6992 20.3901 16.1592 21.8501 17.9492 21.8501C19.7392 21.8501 21.1992 20.3901 21.1992 18.6001C21.1992 16.8101 19.7392 15.3501 17.9492 15.3501ZM18.4192 20.1301C18.5692 20.2801 18.7592 20.3501 18.9492 20.3501C19.1392 20.3501 19.3292 20.2801 19.4792 20.1301C19.7692 19.8401 19.7692 19.3601 19.4792 19.0701L18.6992 18.2901V16.6001C18.6992 16.1901 18.3592 15.8501 17.9492 15.8501C17.5392 15.8501 17.1992 16.1901 17.1992 16.6001V18.6001C17.1992 18.8001 17.2792 18.9901 17.4192 19.1301L18.4192 20.1301Z" fill="#6B7280"/>
</svg>
