<svg width="41" height="41" viewBox="0 0 41 41" fill="none" xmlns="http://www.w3.org/2000/svg">
<path fill-rule="evenodd" clip-rule="evenodd" d="M29.0879 11.8587C28.4046 11.8587 27.8379 11.2921 27.8379 10.6087V8.56872C26.5479 8.52539 25.0329 8.52539 23.2546 8.52539H19.9212C18.1412 8.52539 16.6279 8.52539 15.3379 8.56872V10.6087C15.3379 11.2921 14.7712 11.8587 14.0879 11.8587C13.4046 11.8587 12.8379 11.2921 12.8379 10.6087V8.74872C11.2629 8.95372 10.1812 9.34872 9.42122 10.1087C8.41789 11.1121 8.05122 12.6754 7.91622 15.1921H35.2596C35.1246 12.6754 34.7562 11.1121 33.7546 10.1087C32.9946 9.34872 31.9129 8.95372 30.3379 8.74872V10.6087C30.3379 11.2921 29.7712 11.8587 29.0879 11.8587ZM35.3279 17.6921C35.3368 18.5732 35.3401 19.5454 35.3379 20.6087V22.2754C35.3379 22.9587 35.9046 23.5254 36.5879 23.5254C37.2712 23.5254 37.8379 22.9587 37.8379 22.2754V20.6087C37.8379 13.9754 37.8379 10.6587 35.5212 8.34206C34.2346 7.05539 32.6379 6.48372 30.3379 6.22872V4.77539C30.3379 4.09206 29.7712 3.52539 29.0879 3.52539C28.4046 3.52539 27.8379 4.09206 27.8379 4.77539V6.06706C26.5112 6.02539 24.9962 6.02539 23.2546 6.02539H19.9212C18.1779 6.02539 16.6646 6.02539 15.3379 6.06706V4.77539C15.3379 4.09206 14.7712 3.52539 14.0879 3.52539C13.4046 3.52539 12.8379 4.09206 12.8379 4.77539V6.22872C10.5379 6.48372 8.94122 7.05539 7.65456 8.34206C5.33789 10.6587 5.33789 13.9921 5.33789 20.6087V23.9421C5.33789 30.5754 5.33789 33.8921 7.65456 36.2087C9.97122 38.5254 13.2879 38.5254 19.9212 38.5254C20.6046 38.5254 21.1712 37.9587 21.1712 37.2754C21.1712 36.5921 20.6046 36.0254 19.9212 36.0254C13.9879 36.0254 11.0046 36.0254 9.42122 34.4421C7.83789 32.8587 7.83789 29.8754 7.83789 23.9421V20.6087C7.83678 19.5465 7.83956 18.5743 7.84622 17.6921H35.3279ZM29.9212 39.3587C25.5546 39.3587 22.0046 35.8087 22.0046 31.4421C22.0046 27.0754 25.5546 23.5254 29.9212 23.5254C34.2879 23.5254 37.8379 27.0754 37.8379 31.4421C37.8379 35.8087 34.2879 39.3587 29.9212 39.3587ZM29.9212 26.0254C26.9379 26.0254 24.5046 28.4587 24.5046 31.4421C24.5046 34.4254 26.9379 36.8587 29.9212 36.8587C32.9046 36.8587 35.3379 34.4254 35.3379 31.4421C35.3379 28.4587 32.9046 26.0254 29.9212 26.0254ZM30.7046 33.9921C30.9546 34.2421 31.2712 34.3587 31.5879 34.3587C31.9046 34.3587 32.2212 34.2421 32.4712 33.9921C32.9546 33.5087 32.9546 32.7087 32.4712 32.2254L31.1712 30.9254V28.1087C31.1712 27.4254 30.6046 26.8587 29.9212 26.8587C29.2379 26.8587 28.6712 27.4254 28.6712 28.1087V31.4421C28.6712 31.7754 28.8046 32.0921 29.0379 32.3254L30.7046 33.9921Z" fill="url(#paint0_linear_3088_52063)"/>
<defs>
<linearGradient id="paint0_linear_3088_52063" x1="37.8379" y1="21.4421" x2="5.33789" y2="21.4421" gradientUnits="userSpaceOnUse">
<stop stop-color="#0056B3"/>
<stop offset="1" stop-color="#FF7043"/>
</linearGradient>
</defs>
</svg>
