<svg width="25" height="25" viewBox="0 0 25 25" fill="none" xmlns="http://www.w3.org/2000/svg">
<path d="M7.03144 21.7991C5.85344 21.7991 4.89844 20.8191 4.89844 19.6091V10.8071C4.89844 10.1421 5.19344 9.5121 5.69844 9.0971L11.5654 4.2791C11.9403 3.96869 12.4117 3.79883 12.8984 3.79883C13.3851 3.79883 13.8566 3.96869 14.2314 4.2791L20.0974 9.0971C20.6034 9.5121 20.8984 10.1421 20.8984 10.8071V19.6091C20.8984 20.8191 19.9434 21.7991 18.7654 21.7991H7.03144Z" stroke="#6B7280" stroke-width="1.5" stroke-linecap="round" stroke-linejoin="round"/>
<path d="M10.3984 21.7988V16.2988C10.3984 15.7684 10.6092 15.2597 10.9842 14.8846C11.3593 14.5095 11.868 14.2988 12.3984 14.2988H13.3984C13.9289 14.2988 14.4376 14.5095 14.8127 14.8846C15.1877 15.2597 15.3984 15.7684 15.3984 16.2988V21.7988" stroke="#6B7280" stroke-width="1.5" stroke-linecap="round" stroke-linejoin="round"/>
</svg>
