<svg width="30" height="32" viewBox="0 0 30 32" fill="none" xmlns="http://www.w3.org/2000/svg">
<path d="M1.56445 24.9368L6.56445 1.60352M28.2311 24.9368L23.2311 1.60352M14.8978 13.2702V9.93685M14.8978 4.93685V1.60352M10.0578 29.5918L14.7761 19.3652C14.8161 19.2818 14.8345 19.2402 14.8611 19.2268C14.8725 19.2213 14.8851 19.2183 14.8978 19.2183C14.9105 19.2183 14.923 19.2213 14.9345 19.2268C14.9611 19.2402 14.9795 19.2818 15.0178 19.3652L19.7378 29.5918C19.7878 29.6968 19.8111 29.7502 19.8028 29.7818C19.7986 29.795 19.7913 29.8069 19.7814 29.8165C19.7715 29.8261 19.7594 29.8331 19.7461 29.8368C19.7128 29.8452 19.6628 29.8202 19.5578 29.7668L14.9578 27.4668C14.9438 27.4586 14.9286 27.4524 14.9128 27.4485H14.8828C14.8671 27.4519 14.8519 27.4575 14.8378 27.4652L10.2378 29.7668C10.1328 29.8185 10.0811 29.8452 10.0495 29.8368C10.0362 29.8331 10.0241 29.8261 10.0142 29.8165C10.0043 29.8069 9.99695 29.795 9.99279 29.7818C9.98445 29.7502 10.0095 29.6985 10.0578 29.5918Z" stroke="url(#paint0_linear_3088_19591)" stroke-width="3" stroke-linecap="round"/>
<defs>
<linearGradient id="paint0_linear_3088_19591" x1="28.2311" y1="15.721" x2="1.56445" y2="15.721" gradientUnits="userSpaceOnUse">
<stop stop-color="#0056B3"/>
<stop offset="1" stop-color="#FF7043"/>
</linearGradient>
</defs>
</svg>
