<svg width="32" height="33" viewBox="0 0 32 33" fill="none" xmlns="http://www.w3.org/2000/svg">
<path d="M16.0039 8.90576L17.2757 14.0525C17.3829 14.4863 17.6324 14.8717 17.9842 15.1472C18.3361 15.4228 18.7701 15.5725 19.217 15.5726L26.6703 15.5729" stroke="white" stroke-width="1.5" stroke-linecap="round" stroke-linejoin="round"/>
<path d="M2.67188 8.90527L17.4305 8.90591C19.4959 8.906 20.5279 8.90604 21.4039 9.36741C22.2785 9.82878 22.8625 10.6808 24.0304 12.3835C24.8477 13.5782 25.7076 14.4449 26.9156 15.217C28.1316 15.993 28.7102 16.3731 29.0302 16.9824C29.3382 17.5651 29.3381 18.2558 29.3381 19.6384C29.338 21.4611 29.338 22.3718 28.7873 22.9504L28.7153 23.0224C28.1379 23.573 27.2259 23.573 25.4046 23.5729M6.67124 23.5721C6.24458 23.5721 5.85124 23.5721 5.64458 23.5281C5.43658 23.4827 5.24192 23.3947 4.85126 23.22L2.6713 22.2386C2.67148 17.9799 3.31026 15.5213 4.14634 13.5053C4.69307 12.1827 4.96776 11.5214 4.85312 10.932C4.74248 10.3454 3.33854 8.9053 3.33854 8.9053M12.0046 23.5723L20.0046 23.5727" stroke="white" stroke-width="1.5" stroke-linecap="round" stroke-linejoin="round"/>
<path d="M22.6703 26.2397C24.1431 26.2398 25.3371 25.0459 25.3371 23.5731C25.3372 22.1004 24.1433 20.9064 22.6706 20.9064C21.1978 20.9063 20.0039 22.1002 20.0038 23.5729C20.0037 25.0457 21.1976 26.2396 22.6703 26.2397Z" stroke="white" stroke-width="1.5" stroke-linecap="round" stroke-linejoin="round"/>
<path d="M9.33831 26.2387C10.8111 26.2388 12.005 25.0449 12.0051 23.5722C12.0052 22.0994 10.8113 20.9055 9.33854 20.9054C7.86578 20.9053 6.67182 22.0992 6.67176 23.5719C6.6717 25.0447 7.86555 26.2387 9.33831 26.2387Z" stroke="white" stroke-width="1.5" stroke-linecap="round" stroke-linejoin="round"/>
</svg>
