<svg width="25" height="25" viewBox="0 0 25 25" fill="none" xmlns="http://www.w3.org/2000/svg">
<path d="M3.88281 18.457L6.88281 4.45703M19.8828 18.457L16.8828 4.45703M11.8828 11.457V9.45703M11.8828 6.45703V4.45703M8.97881 21.25L11.8098 15.114C11.8338 15.064 11.8448 15.039 11.8608 15.031C11.8677 15.0277 11.8752 15.0259 11.8828 15.0259C11.8904 15.0259 11.898 15.0277 11.9048 15.031C11.9208 15.039 11.9318 15.064 11.9548 15.114L14.7868 21.25C14.8168 21.313 14.8308 21.345 14.8258 21.364C14.8233 21.3719 14.8189 21.3791 14.813 21.3848C14.807 21.3906 14.7998 21.3948 14.7918 21.397C14.7718 21.402 14.7418 21.387 14.6788 21.355L11.9188 19.975C11.9104 19.9701 11.9013 19.9664 11.8918 19.964H11.8738C11.8644 19.966 11.8553 19.9694 11.8468 19.974L9.08681 21.355C9.02381 21.386 8.99281 21.402 8.97381 21.397C8.96586 21.3948 8.95859 21.3906 8.95266 21.3848C8.94672 21.3791 8.94231 21.3719 8.93981 21.364C8.93481 21.345 8.94981 21.314 8.97881 21.25Z" stroke="#6B7280" stroke-width="1.5" stroke-linecap="round"/>
</svg>
